<?xml version="1.0" ?><svg height="24px" version="1.1" viewBox="0 0 24 24" width="24px" xmlns="http://www.w3.org/2000/svg" xmlns:xlink="http://www.w3.org/1999/xlink"><title/><g fill="none" fill-rule="evenodd" id="页面-1" stroke="none" stroke-linecap="round" stroke-width="1"><g id="导航图标" stroke="#212121" stroke-width="1.5" transform="translate(-103.000000, -334.000000)"><g id="申请" transform="translate(103.000000, 334.000000)"><g id="路径" transform="translate(4.000000, 2.000000)"><path d="M16,14.5 L16,19 C16,19.5523 15.5523,20 15,20 L11.75,20" stroke-linejoin="round"/><path d="M16,6 L16,1 C16,0.447715 15.5523,0 15,0 L1,0 C0.447715,0 0,0.447715 0,1 L0,19 C0,19.5523 0.447715,20 1,20 L4,20" stroke-linejoin="round"/><line x1="4" x2="11" y1="6" y2="6"/><line x1="7.5" x2="16" y1="20" y2="9.5"/><line x1="4" x2="8" y1="10" y2="10"/></g></g></g></g></svg>